<?xml version="1.0" encoding="utf-8"?>
<!-- Generator: Adobe Illustrator 17.0.0, SVG Export Plug-In . SVG Version: 6.00 Build 0)  -->
<!DOCTYPE svg PUBLIC "-//W3C//DTD SVG 1.1//EN" "http://www.w3.org/Graphics/SVG/1.1/DTD/svg11.dtd">
<svg version="1.1" id="Camada_1" xmlns="http://www.w3.org/2000/svg" xmlns:xlink="http://www.w3.org/1999/xlink" x="0px" y="0px"
	 width="30.769px" height="37.012px" viewBox="0 0 30.769 37.012" enable-background="new 0 0 30.769 37.012" xml:space="preserve">
<g>
	
		<circle fill="none" stroke="#606060" stroke-width="2" stroke-linecap="round" stroke-linejoin="round" stroke-miterlimit="10" cx="15.385" cy="8.497" r="7.497"/>
	<path fill="none" stroke="#606060" stroke-width="2" stroke-linecap="round" stroke-linejoin="round" stroke-miterlimit="10" d="
		M15.385,21.444c1.221,0,2.802-0.026,4.446-1.221c1.571-1.141,2.572-1.264,3.051-1.264c0.479,0,2.583,0.142,4.01,2.005
		c2.02,2.637,2.659,6.277,2.659,6.277s0.218,0.654,0.218,3.923s-3.371,4.326-5.056,4.533c-2.315,0.285-9.328,0.314-9.328,0.314
		s-7.014-0.029-9.328-0.314C4.371,35.49,1,34.434,1,31.164s0.218-3.923,0.218-3.923s0.639-3.64,2.659-6.277
		c1.428-1.863,3.531-2.005,4.01-2.005s1.48,0.123,3.051,1.264C12.583,21.418,14.164,21.444,15.385,21.444z"/>
</g>
</svg>
